<svg width="180" height="180" viewBox="0 0 180 180" fill="none" xmlns="http://www.w3.org/2000/svg">
<g filter="url(#filter0_i_4022_15388)">
<path d="M37.7258 170V144.4C37.7258 138.142 38.5887 132.809 40.3145 128.4C42.1841 123.991 45.3481 120.009 49.8064 116.453C54.2648 112.756 60.3051 109.2 67.9274 105.787L97.4818 92.3467C104.673 89.0756 110.353 84.88 114.524 79.76C118.695 74.4978 120.78 67.7422 120.78 59.4933C120.78 49.5378 117.976 41.7867 112.367 36.24C106.758 30.6933 98.8481 27.92 88.6371 27.92C78.5699 27.92 70.6599 30.6933 64.9073 36.24C59.1546 41.7867 56.2782 49.5378 56.2782 59.4933H36C36 50.5333 37.8696 42.2845 41.6089 34.7467C45.4919 27.2089 51.3165 21.2356 59.0827 16.8267C66.8488 12.2756 76.7003 10 88.6371 10C100.574 10 110.353 12.2756 117.976 16.8267C125.742 21.2356 131.495 27.0667 135.234 34.32C139.117 41.5733 141.058 49.4667 141.058 58V60.9867C141.058 72.2222 137.751 81.68 131.135 89.36C124.663 97.04 115.89 103.369 104.817 108.347L75.2621 121.787C68.6465 124.773 64.1882 127.76 61.8871 130.747C59.586 133.733 58.4355 137.716 58.4355 142.693V162.32L52.8266 152.507H143V170H37.7258Z" fill="#1C1917"/>
</g>
<path d="M37.2258 170V170.5H37.7258H143H143.5V170V152.507V152.007H143H58.9355V142.693C58.9355 137.791 60.0683 133.927 62.2832 131.052C64.5063 128.166 68.8699 125.221 75.4678 122.242L75.4691 122.242L105.022 108.803C116.149 103.801 124.987 97.4314 131.516 89.6842C138.217 81.9038 141.558 72.3271 141.558 60.9867V58C141.558 49.3889 139.599 41.4152 135.677 34.0875C131.889 26.7428 126.066 20.8457 118.227 16.3946C110.506 11.7858 100.632 9.5 88.6371 9.5C76.641 9.5 66.6962 11.7863 58.8328 16.3935C50.9884 20.8475 45.0939 26.8898 41.1644 34.5177L41.1643 34.5177L41.161 34.5245C37.3852 42.1358 35.5 50.4614 35.5 59.4933V59.9933H36H56.2782H56.7782V59.4933C56.7782 49.6381 59.6223 42.0303 65.2543 36.5999C70.8912 31.1649 78.6641 28.42 88.6371 28.42C98.7569 28.42 106.525 31.1664 112.015 36.5955C117.506 42.0251 120.28 49.6344 120.28 59.4933C120.28 67.6548 118.219 74.2924 114.134 79.4472C110.021 84.4955 104.408 88.6468 97.2748 91.8915L67.7231 105.33C67.7228 105.33 67.7225 105.331 67.7222 105.331C60.0776 108.754 53.9953 112.33 49.491 116.065C44.9819 119.662 41.7614 123.707 39.8542 128.205L39.854 128.205L39.8489 128.218C38.0944 132.7 37.2258 138.099 37.2258 144.4V170Z" stroke="url(#paint0_linear_4022_15388)"/>
<rect width="180" height="180" fill="url(#paint1_linear_4022_15388)"/>
<defs>
<filter id="filter0_i_4022_15388" x="35" y="9" width="109" height="162" filterUnits="userSpaceOnUse" color-interpolation-filters="sRGB">
<feFlood flood-opacity="0" result="BackgroundImageFix"/>
<feBlend mode="normal" in="SourceGraphic" in2="BackgroundImageFix" result="shape"/>
<feColorMatrix in="SourceAlpha" type="matrix" values="0 0 0 0 0 0 0 0 0 0 0 0 0 0 0 0 0 0 127 0" result="hardAlpha"/>
<feMorphology radius="4" operator="erode" in="SourceAlpha" result="effect1_innerShadow_4022_15388"/>
<feOffset/>
<feGaussianBlur stdDeviation="8"/>
<feComposite in2="hardAlpha" operator="arithmetic" k2="-1" k3="1"/>
<feColorMatrix type="matrix" values="0 0 0 0 0.917647 0 0 0 0 0.67451 0 0 0 0 0.0313726 0 0 0 0.08 0"/>
<feBlend mode="normal" in2="shape" result="effect1_innerShadow_4022_15388"/>
</filter>
<linearGradient id="paint0_linear_4022_15388" x1="89.5" y1="10" x2="89.5" y2="170" gradientUnits="userSpaceOnUse">
<stop stop-color="#FAC515" stop-opacity="0.32"/>
<stop offset="1" stop-color="#FAC515" stop-opacity="0"/>
</linearGradient>
<linearGradient id="paint1_linear_4022_15388" x1="90" y1="0" x2="90" y2="180" gradientUnits="userSpaceOnUse">
<stop offset="0.495" stop-color="#171412" stop-opacity="0"/>
<stop offset="0.905" stop-color="#171412"/>
</linearGradient>
</defs>
</svg>
