<svg width="180" height="180" viewBox="0 0 180 180" fill="none" xmlns="http://www.w3.org/2000/svg">
<g filter="url(#filter0_i_4022_15391)">
<path d="M90 170C78.2091 170 68.2157 167.718 60.0196 163.155C51.8235 158.592 45.5686 152.531 41.2549 144.973C37.085 137.415 35 129.216 35 120.374H55.2745C55.2745 130.071 58.366 137.772 64.549 143.476C70.8758 149.18 79.3595 152.032 90 152.032C97.0458 152.032 103.157 150.749 108.333 148.182C113.51 145.615 117.536 141.979 120.412 137.273C123.288 132.424 124.725 126.791 124.725 120.374C124.725 110.677 121.562 102.834 115.235 96.8449C109.052 90.8556 100.712 87.861 90.2157 87.861C85.7582 87.861 81.8758 88.4314 78.5686 89.5722C75.4052 90.5704 72.6013 91.8538 70.1569 93.4225L59.8039 75.0267L119.98 31.3904L117.824 27.5401H41.2549V10H137.235V38.4492L87.4118 74.385L72.3137 75.0267C74.7582 74.1711 77.4183 73.4581 80.2941 72.8877C83.3137 72.3173 86.8366 72.0321 90.8627 72.0321C102.366 72.0321 112.144 74.1711 120.196 78.4492C128.248 82.7273 134.359 88.4314 138.529 95.5615C142.843 102.692 145 110.463 145 118.877V121.872C145 130.143 142.843 137.986 138.529 145.401C134.359 152.674 128.176 158.592 119.98 163.155C111.928 167.718 101.935 170 90 170Z" fill="#1C1917"/>
</g>
<path d="M40.8171 145.215L40.8207 145.221C45.1831 152.864 51.507 158.988 59.7764 163.592C68.0636 168.206 78.1455 170.5 90 170.5C101.995 170.5 112.079 168.207 120.224 163.592C128.489 158.99 134.742 153.011 138.963 145.651C143.318 138.163 145.5 130.234 145.5 121.872V118.877C145.5 110.374 143.319 102.514 138.959 95.3058C134.738 88.0889 128.555 82.3239 120.431 78.0076C112.607 73.8512 103.194 71.7032 92.2084 71.5419L137.528 38.8547L137.735 38.7051V38.4492V10V9.5H137.235H41.2549H40.7549V10V27.5401V28.0401H41.2549H117.531L119.327 31.2467L59.5104 74.622L59.1496 74.8836L59.3682 75.272L69.7211 93.6677L69.981 94.1294L70.4269 93.8433C72.8293 92.3016 75.592 91.0358 78.7191 90.049L78.7191 90.0492L78.7317 90.0449C81.9743 88.9263 85.7992 88.361 90.2157 88.361C100.613 88.361 108.817 91.3241 114.887 97.2041L114.892 97.208C121.107 103.092 124.225 110.798 124.225 120.374C124.225 126.713 122.806 132.254 119.983 137.015C117.159 141.635 113.206 145.207 108.111 147.734C103.017 150.26 96.9853 151.532 90 151.532C79.4522 151.532 71.0992 148.707 64.8858 143.106C58.8229 137.512 55.7745 129.954 55.7745 120.374V119.874H55.2745H35H34.5V120.374C34.5 129.298 36.6054 137.581 40.8171 145.215Z" stroke="url(#paint0_linear_4022_15391)"/>
<rect width="180" height="180" fill="url(#paint1_linear_4022_15391)"/>
<defs>
<filter id="filter0_i_4022_15391" x="34" y="9" width="112" height="162" filterUnits="userSpaceOnUse" color-interpolation-filters="sRGB">
<feFlood flood-opacity="0" result="BackgroundImageFix"/>
<feBlend mode="normal" in="SourceGraphic" in2="BackgroundImageFix" result="shape"/>
<feColorMatrix in="SourceAlpha" type="matrix" values="0 0 0 0 0 0 0 0 0 0 0 0 0 0 0 0 0 0 127 0" result="hardAlpha"/>
<feMorphology radius="4" operator="erode" in="SourceAlpha" result="effect1_innerShadow_4022_15391"/>
<feOffset/>
<feGaussianBlur stdDeviation="8"/>
<feComposite in2="hardAlpha" operator="arithmetic" k2="-1" k3="1"/>
<feColorMatrix type="matrix" values="0 0 0 0 0.917647 0 0 0 0 0.67451 0 0 0 0 0.0313726 0 0 0 0.08 0"/>
<feBlend mode="normal" in2="shape" result="effect1_innerShadow_4022_15391"/>
</filter>
<linearGradient id="paint0_linear_4022_15391" x1="90" y1="10" x2="90" y2="170" gradientUnits="userSpaceOnUse">
<stop stop-color="#FAC515" stop-opacity="0.32"/>
<stop offset="1" stop-color="#FAC515" stop-opacity="0"/>
</linearGradient>
<linearGradient id="paint1_linear_4022_15391" x1="90" y1="0" x2="90" y2="180" gradientUnits="userSpaceOnUse">
<stop offset="0.495" stop-color="#171412" stop-opacity="0"/>
<stop offset="0.905" stop-color="#171412"/>
</linearGradient>
</defs>
</svg>
