<svg width="41" height="48" viewBox="0 0 41 48" fill="none" xmlns="http://www.w3.org/2000/svg">
<g clip-path="url(#clip0_4024_6803)">
<path d="M40.9148 20.868C40.7152 20.3467 40.2041 20 39.6328 20H23.1304L32.6492 1.944C32.9485 1.376 32.7941 0.681333 32.2789 0.286667C32.0301 0.0946667 31.7308 0 31.4329 0C31.1145 0 30.796 0.109333 30.5405 0.324L20.4996 8.784L0.474007 25.6573C0.0421431 26.0213 -0.113656 26.6093 0.0858761 27.1307C0.285408 27.652 0.795171 28 1.36643 28H17.8688L8.35005 46.056C8.05075 46.624 8.20519 47.3187 8.72042 47.7133C8.96915 47.9053 9.26845 48 9.56638 48C9.88481 48 10.2032 47.8907 10.4588 47.676L20.4996 39.216L40.5253 22.3427C40.9585 21.9787 41.1129 21.3907 40.9148 20.868Z" fill="#FFAC33"/>
</g>
<defs>
<clipPath id="clip0_4024_6803">
<rect width="41" height="48" fill="white"/>
</clipPath>
</defs>
</svg>
