<svg width="40" height="40" viewBox="0 0 40 40" fill="none" xmlns="http://www.w3.org/2000/svg">
<path d="M12.6711 35.3425L13.4652 31.674C14.3508 27.5825 11.2336 23.7178 7.04755 23.7178H3.41016C4.55726 28.8588 8.03221 33.1217 12.6711 35.3425Z" fill="#EFBE84"/>
<path d="M14.2656 36.0082C16.0575 36.6503 17.9886 37.0002 20.0014 37.0002C28.1129 37.0002 34.8975 31.3187 36.5935 23.7178H25.497C20.4953 23.7178 16.1708 27.2066 15.1126 32.0955L14.2656 36.0082Z" fill="#EFBE84"/>
<path d="M36.8811 22.017C36.9595 21.355 36.9998 20.6812 36.9998 19.998C36.9998 11.079 30.1323 3.76399 21.3971 3.05322L19.0145 14.0608C18.1288 18.1524 21.2461 22.017 25.432 22.017H36.8811Z" fill="#EFBE84"/>
<path d="M19.6697 3C10.4333 3.17607 3 10.7191 3 19.9983C3 20.6815 3.04029 21.3552 3.11861 22.0172H6.98214C11.9839 22.0172 16.3084 18.5284 17.3667 13.6395L19.6697 3Z" fill="#EFBE84"/>
</svg>
