<svg width="40" height="40" viewBox="0 0 40 40" fill="none" xmlns="http://www.w3.org/2000/svg">
<path fill-rule="evenodd" clip-rule="evenodd" d="M18.5238 2.04852C15.0598 2.34605 11.8823 3.56249 9.14286 5.63984C7.88441 6.59414 6.62295 7.8564 5.67114 9.11379C3.78254 11.6087 2.57616 14.5421 2.17429 17.6168C1.98365 19.0753 1.98365 20.8927 2.17429 22.3512C2.62673 25.8127 4.09006 29.0712 6.39235 31.7439C6.87003 32.2984 7.77768 33.204 8.31746 33.6646C10.9733 35.9308 14.2126 37.3773 17.6349 37.8255C19.0921 38.0163 20.9079 38.0163 22.3651 37.8255C25.7874 37.3773 29.0267 35.9308 31.6825 33.6646C32.2223 33.204 33.13 32.2984 33.6077 31.7439C35.9099 29.0712 37.3733 25.8127 37.8257 22.3512C38.0164 20.8927 38.0164 19.0753 37.8257 17.6168C37.378 14.1915 35.9327 10.9493 33.6685 8.29116C33.2083 7.75091 32.3035 6.84246 31.7495 6.36435C29.0792 4.06004 25.8236 2.59541 22.3651 2.14257C21.2734 1.99962 19.5767 1.95809 18.5238 2.04852ZM19.2381 3.93882C15.2231 4.13426 11.4948 5.786 8.65378 8.62797C7.53022 9.75188 6.58064 11.034 5.80857 12.4695C5.60864 12.8411 5.23708 13.6388 5.25533 13.657C5.26226 13.664 5.4148 13.6085 5.59429 13.5337C6.02108 13.3558 6.19102 13.3123 6.46095 13.3118C6.70019 13.3114 7.06667 13.3984 7.27568 13.5051C7.34514 13.5406 7.4687 13.6389 7.55022 13.7235C7.64378 13.8207 7.85641 13.9683 8.12699 14.1238C9.36676 14.8363 11.0374 15.9078 12.0317 16.6281C12.5516 17.0047 12.9534 17.4083 13.1584 17.7598C13.245 17.9084 13.4968 18.4175 13.718 18.8913C14.1623 19.843 14.3824 20.2487 14.4943 20.322C14.5575 20.3635 14.5951 20.3649 14.7524 20.3315C14.9266 20.2945 14.9545 20.2742 15.2712 19.9555C15.4553 19.7702 15.8331 19.3541 16.1108 19.0308C16.9158 18.0933 17.1897 17.8073 17.4486 17.634C17.9919 17.2703 18.6068 17.2253 19.1905 17.5065C19.4711 17.6417 19.7148 17.84 19.883 18.0699C19.9436 18.1527 20.2216 18.6322 20.5007 19.1354L21.0081 20.0502L21.0594 19.8503C21.0876 19.7403 21.1461 19.5019 21.1893 19.3203C21.3654 18.5811 21.6595 18.2271 22.2357 18.0606C22.7581 17.9097 23.6575 18.1272 24.2905 18.5574C24.5748 18.7507 24.7375 18.9077 25.0112 19.2532C25.6726 20.0879 28.1409 22.9634 29.8387 24.8772C30.9291 26.1062 31.5574 26.7878 32.2172 27.4573C32.7554 28.0034 32.8198 28.0583 33.0122 28.1355C33.2574 28.2337 33.7092 28.2931 33.7671 28.2348C33.7874 28.2143 33.9078 28.0117 34.0346 27.7845C35.932 24.3845 36.5176 20.3167 35.663 16.473C34.7915 12.5538 32.4815 9.12047 29.1443 6.78438C26.2817 4.78058 22.7553 3.76759 19.2381 3.93882ZM5.98413 15.4572C5.79207 15.5342 5.37064 15.6853 5.04762 15.7931C4.7246 15.901 4.4566 15.9921 4.4521 15.9957C4.43051 16.0129 4.2434 16.8896 4.17553 17.2916C3.60502 20.6702 4.13311 24.1821 5.66838 27.2192C7.93876 31.7106 12.182 34.8863 17.1212 35.7907C17.7926 35.9137 17.7711 35.9904 17.3103 35.1164C14.1015 29.029 9.23965 20.1686 7.32448 16.9178C7.02438 16.4085 6.34899 15.3109 6.33826 15.3152C6.33556 15.3163 6.17619 15.3802 5.98413 15.4572ZM9.97289 17.6362C12.059 21.3409 13.6577 24.2401 15.7323 28.0807C16.2661 29.0691 16.27 29.0751 16.294 28.9545C16.3073 28.8877 16.4749 27.0958 16.6665 24.9725C16.8581 22.8492 17.0207 21.0691 17.028 21.0167C17.0395 20.9329 16.9848 20.9776 16.5761 21.3854C16.1617 21.7989 16.0817 21.8638 15.8413 21.9816C15.6929 22.0543 15.4286 22.1504 15.254 22.1951C14.9759 22.2662 14.8873 22.2747 14.5397 22.2637C14.0962 22.2495 13.8298 22.1768 13.5006 21.9801C12.9649 21.6598 12.7054 21.2813 12.0282 19.8315C11.5498 18.8075 11.4645 18.6549 11.2777 18.4898C11.1192 18.3497 10.57 17.9497 10.1456 17.6651L9.89432 17.4966L9.97289 17.6362ZM22.9129 20.3871C22.7897 20.8681 22.5895 21.2644 22.3415 21.5175C22.2322 21.629 22.108 21.7418 22.0654 21.7682L21.9879 21.8162L25.252 27.6918C27.0472 30.9234 28.5215 33.5735 28.5281 33.581C28.5457 33.6005 29.2243 33.1385 29.6508 32.8167C30.3828 32.2644 31.0477 31.6672 31.6903 30.9849C32.0552 30.5974 32.5082 30.0689 32.5075 30.0315C32.5072 30.019 32.3702 29.9529 32.2028 29.8847C32.0355 29.8165 31.8107 29.6966 31.7033 29.6183C31.3228 29.3407 30.3038 28.2905 28.9374 26.7678C27.2681 24.9075 24.2924 21.4516 23.5107 20.4654C23.358 20.2727 23.0922 20.0476 23.0175 20.0476C23.0077 20.0476 22.9606 20.2004 22.9129 20.3871ZM19.0162 20.4765C19.0153 20.494 18.7736 23.1376 18.4792 26.3513L17.9438 32.1943L18.5793 33.3892C18.9289 34.0464 19.3856 34.9166 19.5943 35.3229L19.9736 36.0616L20.3916 36.0444C21.7808 35.9869 22.7066 35.8609 23.8997 35.567C25.029 35.2888 26.8597 34.6084 26.8122 34.4844C26.8004 34.4537 19.2163 20.7912 19.0451 20.4924C19.0301 20.4662 19.0171 20.459 19.0162 20.4765Z" fill="white"/>
</svg>
