<svg width="40" height="40" viewBox="0 0 40 40" fill="none" xmlns="http://www.w3.org/2000/svg">
<path d="M32.7485 20.8522L14.0243 31.6966C12.7312 32.4456 12.288 34.104 13.0343 35.4007C13.7806 36.6973 15.4339 37.1414 16.7269 36.3925L35.4511 25.548C36.7443 24.7991 37.1875 23.1408 36.4412 21.844C35.6948 20.5474 34.0416 20.1033 32.7485 20.8522Z" fill="#FF7829"/>
<path d="M19.7979 17.3854L5.7548 25.5188C4.46173 26.2677 4.01846 27.926 4.76476 29.2227C5.51107 30.5195 7.16434 30.9636 8.45743 30.2147L22.5005 22.0812C23.7936 21.3323 24.2369 19.674 23.4905 18.3773C22.7443 17.0806 21.091 16.6365 19.7979 17.3854Z" fill="#FCBF22"/>
<path d="M23.2719 4.38344L4.54777 15.228C3.25468 15.9769 2.81143 17.6352 3.55773 18.9319C4.30404 20.2286 5.95728 20.6727 7.25037 19.9238L25.9746 9.07925C27.2676 8.33034 27.7109 6.67202 26.9646 5.37531C26.2183 4.0786 24.565 3.63452 23.2719 4.38344Z" fill="#2AE5B9"/>
</svg>
