<svg width="41" height="40" viewBox="0 0 41 40" fill="none" xmlns="http://www.w3.org/2000/svg">
<path d="M24.3829 13.099C24.4869 8.25397 21.5696 4.03207 20.0502 3.01739C20.0432 3.01086 19.9079 2.94235 19.9183 3.13158C19.9183 3.13484 19.9148 3.13484 19.9148 3.1381C19.7588 12.2899 14.7565 14.7565 12.0404 18.1105C6.00456 25.5688 11.0414 34.078 17.5663 35.6896C17.6775 35.7158 17.9792 35.8006 18.5516 35.9115C18.8499 35.9703 18.9366 35.732 18.718 35.3764C17.9376 34.1007 16.5499 31.9474 16.276 29.1806C15.6516 22.7564 24.2614 18.7369 24.3829 13.099Z" fill="white"/>
<path d="M27.6714 16.2018C27.6194 16.1659 27.5466 16.1691 27.5397 16.2311C27.4009 17.3959 26.1208 19.8103 24.4349 22.068C18.7597 29.6798 21.6183 33.1316 23.8384 35.5265C24.2476 35.9702 24.4522 35.8724 24.6674 35.5559C24.8686 35.2558 25.1738 34.874 26.4852 34.29C26.6898 34.1987 31.6434 31.7256 32.1811 26.0942C32.698 20.6455 28.9826 17.2001 27.6714 16.2018Z" fill="#008CD6"/>
</svg>
