<svg width="41" height="40" viewBox="0 0 41 40" fill="none" xmlns="http://www.w3.org/2000/svg">
<g clip-path="url(#clip0_5232_13816)">
<path d="M30.4507 33.3438H11.0107V37.2207H30.4507V33.3438Z" fill="#B35030"/>
<path d="M18.7943 21.6875H14.9062V25.5644H18.7943V21.6875Z" fill="#B35030"/>
<path d="M26.5657 21.6875H22.6777V25.5644H26.5657V21.6875Z" fill="#B35030"/>
<path d="M30.4507 2.25H11.0107V6.12692H30.4507V2.25Z" fill="#B35030"/>
<path d="M22.68 25.5835H18.792V29.4604H22.68V25.5835Z" fill="#B35030"/>
<path d="M22.68 10.0312H18.792V13.9081H22.68V10.0312Z" fill="#B35030"/>
<path d="M26.5657 13.9165H22.6777V17.7934H26.5657V13.9165Z" fill="#B35030"/>
<path d="M18.7943 13.9165H14.9062V17.7934H18.7943V13.9165Z" fill="#B35030"/>
<path d="M38.222 10.021H34.334V29.461H38.222V10.021Z" fill="#B35030"/>
<path d="M7.11748 17.797V10.021H3.22949V17.797H3.24076V21.685V29.461H7.12876V21.685V17.797H7.11748Z" fill="#B35030"/>
</g>
<defs>
<clipPath id="clip0_5232_13816">
<rect width="36" height="36" fill="white" transform="translate(2.66699 2)"/>
</clipPath>
</defs>
</svg>
