<svg width="40" height="40" viewBox="0 0 40 40" fill="none" xmlns="http://www.w3.org/2000/svg">
<path fill-rule="evenodd" clip-rule="evenodd" d="M14.0833 20L24.4367 30.0725L30.9644 23.722C31.5176 23.1838 32.2679 22.8815 33.0502 22.8815C33.8325 22.8815 34.5828 23.1838 35.136 23.722C35.6892 24.2602 36 24.9901 36 25.7512C36 26.5123 35.6892 27.2422 35.136 27.7804L26.5334 36.1706C25.9723 36.7024 25.22 37 24.4367 37C23.6534 37 22.9011 36.7024 22.3401 36.1706L9.91163 24.0584V31.2501C9.94664 31.6476 9.89637 32.048 9.764 32.4257C9.63162 32.8034 9.42004 33.1502 9.14265 33.4441C8.86527 33.7381 8.52813 33.9728 8.15261 34.1334C7.7771 34.2939 7.37139 34.3768 6.96122 34.3768C6.55104 34.3768 6.14534 34.2939 5.76982 34.1334C5.39431 33.9728 5.05717 33.7381 4.77978 33.4441C4.5024 33.1502 4.29082 32.8034 4.15845 32.4257C4.02607 32.048 3.9758 31.6476 4.01081 31.2501V8.74995C3.9758 8.35236 4.02607 7.95203 4.15845 7.57434C4.29082 7.19664 4.5024 6.84982 4.77978 6.55585C5.05717 6.26189 5.39431 6.02719 5.76982 5.86664C6.14534 5.70609 6.55104 5.62319 6.96122 5.62319C7.37139 5.62319 7.7771 5.70609 8.15261 5.86664C8.52813 6.02719 8.86527 6.26189 9.14265 6.55585C9.42004 6.84982 9.63162 7.19664 9.764 7.57434C9.89637 7.95203 9.94664 8.35236 9.91163 8.74995V15.9416L22.3401 3.82937C22.9011 3.29759 23.6534 3 24.4367 3C25.22 3 25.9723 3.29759 26.5334 3.82937L35.136 12.2196C35.6892 12.7578 36 13.4877 36 14.2488C36 15.0099 35.6892 15.7398 35.136 16.278C34.5828 16.8162 33.8325 17.1185 33.0502 17.1185C32.2679 17.1185 31.5176 16.8162 30.9644 16.278L24.4367 9.92753L14.0833 20ZM24.4367 17.1191C23.8511 17.1191 23.2785 17.2881 22.7916 17.6047C22.3046 17.9212 21.9251 18.3711 21.7009 18.8975C21.4768 19.424 21.4181 20.0032 21.5324 20.562C21.6467 21.1209 21.9287 21.6342 22.3428 22.0371C22.757 22.44 23.2846 22.7143 23.859 22.8255C24.4334 22.9367 25.0288 22.8796 25.5699 22.6616C26.111 22.4435 26.5735 22.0743 26.8989 21.6005C27.2243 21.1268 27.398 20.5698 27.398 20C27.398 19.236 27.086 18.5032 26.5306 17.9629C25.9753 17.4227 25.2221 17.1191 24.4367 17.1191Z" fill="#23AF91"/>
</svg>
