<svg width="41" height="40" viewBox="0 0 41 40" fill="none" xmlns="http://www.w3.org/2000/svg">
<path fill-rule="evenodd" clip-rule="evenodd" d="M6.65449 30.4698H27.1483C28.3664 30.4698 29.2933 29.022 28.5919 27.9703L18.3579 10.1645C17.6103 8.87611 16.1925 8 14.5686 8C12.8671 8 11.3719 8.97918 10.6501 10.4222L2.86507 23.9247C1.27974 26.7545 3.44116 30.4698 6.65449 30.4698Z" fill="#0043FF"/>
<path fill-rule="evenodd" clip-rule="evenodd" d="M22.7884 14.5711C21.5768 12.4839 22.2986 9.80397 24.3867 8.59286C26.4747 7.38176 29.1556 8.10327 30.3673 10.1905L38.2813 23.8992C39.4929 25.9863 38.7709 28.6662 36.6829 29.8773C34.5948 31.0885 31.9139 30.3669 30.7023 28.2797L22.7884 14.5711Z" fill="#0043FF"/>
</svg>
