<svg width="40" height="40" viewBox="0 0 40 40" fill="none" xmlns="http://www.w3.org/2000/svg">
<g clip-path="url(#clip0_5219_13706)">
<path d="M11.7312 14H0.26662C0.195907 14 0.128092 14.0281 0.0780907 14.0781C0.0280899 14.1281 0 14.1959 0 14.2667V25.7329C0 25.8036 0.0280899 25.8715 0.0780907 25.9215C0.128092 25.9714 0.195907 25.9995 0.26662 25.9995H11.7312C11.802 25.9995 11.8697 25.9714 11.9198 25.9215C11.9698 25.8715 11.9979 25.8036 11.9979 25.7329V14.2667C11.9979 14.1959 11.9698 14.1281 11.9198 14.0781C11.8697 14.0281 11.802 14 11.7312 14ZM7.99858 21.7331C7.99858 21.8038 7.97049 21.8716 7.92049 21.9216C7.87049 21.9716 7.80268 21.9997 7.73197 21.9997H4.26591C4.1952 21.9997 4.12738 21.9716 4.07738 21.9216C4.02738 21.8716 3.99929 21.8038 3.99929 21.7331V18.2665C3.99929 18.1958 4.02738 18.128 4.07738 18.078C4.12738 18.0279 4.1952 17.9999 4.26591 17.9999H7.73197C7.80268 17.9999 7.87049 18.0279 7.92049 18.078C7.97049 18.128 7.99858 18.1958 7.99858 18.2665V21.7331Z" fill="white"/>
<path d="M35.7327 18.0005H32.2666C32.1194 18.0005 32 18.1199 32 18.2671V21.7337C32 21.881 32.1194 22.0003 32.2666 22.0003H35.7327C35.88 22.0003 35.9993 21.881 35.9993 21.7337V18.2671C35.9993 18.1199 35.88 18.0005 35.7327 18.0005Z" fill="white"/>
<path d="M31.7326 14H28.2666C28.1193 14 28 14.1194 28 14.2667V17.7332C28 17.8805 28.1193 17.9999 28.2666 17.9999H31.7326C31.8799 17.9999 31.9993 17.8805 31.9993 17.7332V14.2667C31.9993 14.1194 31.8799 14 31.7326 14Z" fill="white"/>
<path d="M39.7327 14H36.2666C36.1194 14 36 14.1194 36 14.2667V17.7332C36 17.8805 36.1194 17.9999 36.2666 17.9999H39.7327C39.88 17.9999 39.9993 17.8805 39.9993 17.7332V14.2667C39.9993 14.1194 39.88 14 39.7327 14Z" fill="white"/>
<path d="M31.7326 22H28.2666C28.1193 22 28 22.1194 28 22.2666V25.7332C28 25.8805 28.1193 25.9999 28.2666 25.9999H31.7326C31.8799 25.9999 31.9993 25.8805 31.9993 25.7332V22.2666C31.9993 22.1194 31.8799 22 31.7326 22Z" fill="white"/>
<path d="M39.7327 22H36.2666C36.1194 22 36 22.1194 36 22.2666V25.7332C36 25.8805 36.1194 25.9999 36.2666 25.9999H39.7327C39.88 25.9999 39.9993 25.8805 39.9993 25.7332V22.2666C39.9993 22.1194 39.88 22 39.7327 22Z" fill="white"/>
<path d="M25.7288 14H22.2628C22.1155 14 21.9961 14.1194 21.9961 14.2667V17.7332C21.9961 17.8805 22.1155 17.9999 22.2628 17.9999H25.7288C25.8761 17.9999 25.9954 17.8805 25.9954 17.7332V14.2667C25.9954 14.1194 25.8761 14 25.7288 14Z" fill="white"/>
<path d="M25.7288 22H22.2628C22.1155 22 21.9961 22.1194 21.9961 22.2666V25.7332C21.9961 25.8805 22.1155 25.9999 22.2628 25.9999H25.7288C25.8761 25.9999 25.9954 25.8805 25.9954 25.7332V22.2666C25.9954 22.1194 25.8761 22 25.7288 22Z" fill="white"/>
<path d="M21.9947 18.2635C21.9947 18.1928 21.9666 18.125 21.9166 18.075C21.8667 18.025 21.7988 17.9969 21.7281 17.9969H17.9954V14.2667C17.9954 14.1959 17.9673 14.1281 17.9173 14.0781C17.8673 14.0281 17.7995 14 17.7288 14H14.2628C14.192 14 14.1243 14.0281 14.0742 14.0781C14.0242 14.1281 13.9961 14.1959 13.9961 14.2667V25.7269C13.9961 25.7976 14.0242 25.8654 14.0742 25.9155C14.1243 25.9655 14.192 25.9936 14.2628 25.9936H17.7288C17.7995 25.9936 17.8673 25.9655 17.9173 25.9155C17.9673 25.8654 17.9954 25.7976 17.9954 25.7269V21.9967H21.7281C21.7988 21.9967 21.8667 21.9686 21.9166 21.9186C21.9666 21.8686 21.9947 21.8008 21.9947 21.7301V18.2635Z" fill="white"/>
</g>
<defs>
<clipPath id="clip0_5219_13706">
<rect width="40" height="12" fill="white" transform="translate(0 14)"/>
</clipPath>
</defs>
</svg>
