<svg width="40" height="40" viewBox="0 0 40 40" fill="none" xmlns="http://www.w3.org/2000/svg">
<path d="M37.3924 10.8269L24.2172 33.7288C23.8189 34.4195 23.2466 34.9929 22.5577 35.3916C21.8687 35.7901 21.0875 36 20.2924 36C19.4971 36 18.7159 35.7901 18.027 35.3916C17.3381 34.9929 16.7657 34.4195 16.3674 33.7288L14.0577 29.7171C14.0503 29.7071 14.0471 29.6947 14.0489 29.6823C14.0506 29.67 14.0572 29.6589 14.0671 29.6514C14.077 29.644 14.0894 29.6408 14.1017 29.6425C14.114 29.6443 14.1251 29.6509 14.1326 29.6608C14.5445 30.069 15.0442 30.3772 15.593 30.5618C16.142 30.7465 16.7257 30.8027 17.2996 30.7262C17.8735 30.6497 18.4224 30.4424 18.9042 30.1203C19.386 29.7982 19.788 29.3699 20.0795 28.8678L31.1087 9.67737C31.3995 9.17071 31.5702 8.60369 31.6075 8.02021C31.6449 7.43673 31.5479 6.85245 31.3242 6.31261C31.1004 5.77277 30.7559 5.29184 30.3172 4.90709C29.8785 4.52234 29.3575 4.24407 28.7945 4.09384C28.7821 4.09384 28.7702 4.0889 28.7614 4.0801C28.7526 4.0713 28.7477 4.05937 28.7477 4.04692C28.7477 4.03448 28.7526 4.02254 28.7614 4.01375C28.7702 4.00495 28.7821 4 28.7945 4H33.4698C34.2655 4.00086 35.0469 4.21179 35.7357 4.6116C36.4243 5.0114 36.9962 5.58602 37.3936 6.27776C37.7911 6.9695 38.0002 7.754 38 8.55251C37.9998 9.35101 37.7903 10.1354 37.3924 10.8269ZM21.7954 4H17.2276C17.2183 4.00309 17.2101 4.00906 17.2043 4.01706C17.1985 4.02507 17.1954 4.0347 17.1954 4.04458C17.1954 4.05446 17.1985 4.06409 17.2043 4.07209C17.2101 4.0801 17.2183 4.08607 17.2276 4.08915C17.5353 4.20841 17.8136 4.39292 18.0437 4.63008C18.2738 4.86725 18.45 5.15146 18.5606 5.4633C18.6711 5.77514 18.7133 6.10727 18.6841 6.43695C18.655 6.76664 18.5553 7.08613 18.3918 7.37358L11.7341 18.9301C11.5621 19.2231 11.3275 19.4743 11.0473 19.6656C10.7671 19.8569 10.4482 19.9836 10.1134 20.0365C9.77863 20.0894 9.43633 20.0673 9.11108 19.9718C8.78583 19.8762 8.48571 19.7095 8.23225 19.4837C8.22481 19.4738 8.21373 19.4672 8.20145 19.4655C8.18918 19.4637 8.17671 19.4669 8.16679 19.4744C8.15687 19.4818 8.15031 19.4929 8.14856 19.5053C8.14681 19.5176 8.15 19.5301 8.15744 19.54L10.4951 23.6127C10.7576 24.0697 11.1354 24.4494 11.5905 24.7133C12.0456 24.9772 12.562 25.1162 13.0876 25.1162C13.6132 25.1162 14.1296 24.9772 14.5847 24.7133C15.0398 24.4494 15.4176 24.0697 15.6801 23.6127L24.3903 8.50436C24.6531 8.04761 24.7913 7.52946 24.7912 7.00203C24.791 6.47462 24.6525 5.95654 24.3894 5.49994C24.1264 5.04335 23.7482 4.66432 23.2928 4.40101C22.8374 4.1377 22.321 3.99939 21.7954 4ZM5.94133 4C5.1618 4 4.39979 4.23198 3.75164 4.66661C3.1035 5.10123 2.59833 5.71898 2.30002 6.44174C2.00171 7.16448 1.92366 7.95978 2.07573 8.72705C2.22781 9.49433 2.60318 10.1991 3.15439 10.7523C3.70559 11.3055 4.40787 11.6822 5.17241 11.8348C5.93695 11.9874 6.72942 11.9091 7.4496 11.6097C8.16978 11.3103 8.78533 10.8034 9.21842 10.1529C9.65149 9.50243 9.88265 8.7377 9.88265 7.9554C9.88326 7.43579 9.78173 6.92117 9.58388 6.441C9.38603 5.96083 9.09574 5.52455 8.72963 5.15714C8.36352 4.78972 7.92879 4.49839 7.45033 4.29983C6.97186 4.10127 6.45908 3.99939 5.94133 4Z" fill="url(#paint0_linear_5219_13831)"/>
<defs>
<linearGradient id="paint0_linear_5219_13831" x1="37.5394" y1="29.3231" x2="-3.71655" y2="1.40624" gradientUnits="userSpaceOnUse">
<stop stop-color="#5433FF"/>
<stop offset="0.5" stop-color="#20BDFF"/>
<stop offset="1" stop-color="#5CFFA2"/>
</linearGradient>
</defs>
</svg>
