<svg width="40" height="40" viewBox="0 0 40 40" fill="none" xmlns="http://www.w3.org/2000/svg">
<path fill-rule="evenodd" clip-rule="evenodd" d="M31.1226 2.34814C30.092 2.34814 29.2566 3.17849 29.2566 4.20278V29.5731C29.2566 29.9271 29.1087 30.265 28.8482 30.5063C28.3273 30.9888 27.5108 30.9575 27.0287 30.4366L24.0227 27.1882C24.0123 27.1769 24.0014 27.1666 23.9901 27.1569C23.913 27.0915 23.8521 26.9605 23.8521 26.8598V11.9042C23.8521 10.8799 23.0166 10.0495 21.9861 10.0495L18.5122 10.0495C17.4817 10.0495 16.6462 10.8799 16.6462 11.9042V29.0609C16.6462 29.4592 16.4815 29.8398 16.1906 30.1138C15.6039 30.6664 14.6769 30.6395 14.1234 30.0539L11.4273 27.2012C11.4036 27.1762 11.377 27.155 11.3483 27.1377C11.2933 27.1046 11.2566 27.0401 11.2566 26.9762V18.3661C11.2566 17.3418 10.4212 16.5115 9.39066 16.5115H5.91677C4.88621 16.5115 4.05078 17.3418 4.05078 18.3661V29.4957C4.05078 29.7144 4.14266 29.903 4.28461 30.0353C4.44551 30.1855 4.60977 30.3559 4.75448 30.5215L9.05161 35.4394C9.75597 36.2454 10.9979 36.2954 11.7656 35.5487L15.5947 31.824C15.6015 31.8174 15.6122 31.8172 15.6191 31.8235C15.6261 31.8299 15.6369 31.8296 15.6436 31.8229L16.4107 31.0578C16.8585 30.611 17.5844 30.6052 18.0395 31.0447L22.4907 35.3429C23.2193 36.0464 24.3802 36.0415 25.1027 35.3318L28.4816 32.0126C28.4832 32.011 28.4833 32.0085 28.4818 32.0068C28.4802 32.0051 28.4803 32.0026 28.4819 32.001L29.7713 30.7147L35.3966 25.1618C35.7494 24.8137 35.9478 24.34 35.9478 23.8459V4.2028C35.9478 3.17852 35.1124 2.34817 34.0818 2.34817L31.1226 2.34814Z" fill="#4BB132"/>
</svg>
